<?xml version="1.0" encoding="utf-8"?>
<svg version="1.1" id="Layer_1" xmlns="http://www.w3.org/2000/svg" xmlns:xlink="http://www.w3.org/1999/xlink" x="0px" y="0px"
	 viewBox="0 0 1000 1000" style="enable-background:new 0 0 1000 1000;" xml:space="preserve">
<style type="text/css">
	.suscolor{fill:#3F5AA8;}
	.st2{fill:#A3D3E3;}
	.st4{opacity:0.45;fill:#5B7882;}
	.st5{fill:#FFFFFF;}
</style>
<g>
	<path d="M812,403.1c25.4-28.3,38.6-63.6,35.9-98.1c-3.3-40.9-28.7-80.2-71.7-110.9h0c-5.4-3.8-10.9-7.4-16.5-10.8
		c-5.1-21.3-16-40.4-25.5-54c-14.9-21.3-33.9-39.9-52-51.3c-33-20.6-69.6-31-101.2-39.2c-17.7-4.6-32.5-3.5-45.6-2.7
		c-8.9,0.6-16.6,1.1-24.8-0.1c-36.1-5.2-73.4,3.1-108,24.2c-30.6,18.6-57.4,46.6-75.5,78.8c-24.6,43.7-35.3,92.7-40.8,139.8
		c-7.7,1-16.5,1-25.6,1.1c-26.7,0.2-60,0.4-83.6,26.5c-20.4,22.5-21.5,52.4-22.2,72.2c-2.6,73.8-5.2,150.2-3.3,225.8
		c1.1,44,6.8,88.9,39.9,119.5c25.6,23.7,58.9,29.8,89,29.8c3.1,0,6.2-0.1,9.3-0.2c2,19.7,4.2,39.4,6.7,59.1
		c3.2,25.2,7.1,49.6,20.6,71.8c19.7,32.5,57.4,52.4,96.1,52.4c6.7,0,13.4-0.6,20.1-1.8c45.8-8.4,83.5-44.6,93.9-90
		c4.9-21.7,3.3-43.2,1.9-62.2c-0.6-8.1-1.2-16.1-1.3-23.6c9.7-0.1,21.2-0.2,33.6-0.4c-8,44.4,6.6,91.7,40,120.6
		c20.3,17.5,47.3,27.1,75.3,27.1c3.8,0,7.6-0.2,11.4-0.5c30.5-2.8,57.1-16.6,74.8-38.7c19.5-24.4,25.9-53.9,30.7-82
		c21.8-126.1,28.2-254.7,18.9-382.2L812,403.1z"/>
	<path class="suscolor" d="M760.3,495.2c-0.2-17.4-0.8-34.8-1.6-52.2c-20.1,10.1-43.5,18.1-71.4,24.4c-26.4,5.9-50.5,8.9-72.8,8.9
		c-20.7,0-39.8-2.6-57.6-7.7c-55.8-16.2-102.2-60.3-121.1-115.1c-14.7-42.6-12.6-91.2,5.9-133.1c20.1-45.6,69.8-58.9,99.6-66.8
		c46-12.3,94.2-12.7,139.3-2.2c-8.9-10.7-18.9-20-28.1-25.8c-26.2-16.4-57.9-25.3-85.5-32.4c-8.9-2.3-17.3-1.7-27.9-1
		c-10.6,0.7-22.5,1.5-36.6-0.5c-53.6-7.8-103.2,33.5-126.6,75c-1.2,2.2-2.4,4.3-3.5,6.6C346.5,223,340.8,282,337.3,338.3
		c-9.7,155.5-4.8,312.8,14.7,467.4c2.5,19.6,5.1,36.9,12.9,49.8c11,18.1,36,28.7,58.2,24.6c23.3-4.3,44.1-24.2,49.4-47.4
		c3.1-13.5,1.9-29.1,0.6-45.6c-1.4-18.9-3-40.3,1.8-61.9c2.8-12.4,13.6-21.4,26.3-21.9l0.9,0c0.4,0,0.7,0,1.1,0
		c22.6,0.1,134.9-1.3,189.3-5.8c0,0-27.8,52.9-73.1,59.7c-9.6,28-2.3,62,18.4,79.9c11.4,9.8,28.2,14.8,44.9,13.2
		c15-1.4,28.2-7.9,36.1-17.9c11.2-14.1,15.5-34.8,19.3-56.6C754.3,683.2,761.6,589.1,760.3,495.2z M278.3,396
		c0.8-20.2,1.8-40.3,3-60.4c-7,0.4-13.8,0.4-20.4,0.5c-22,0.2-35.9,0.8-42.5,8.1c-6.7,7.3-7.3,24.9-7.7,36.5
		c-0.2,6.2-0.4,12.4-0.7,18.6c-2.3,67.2-4.4,136.2-2.6,203.8c0.8,31.7,4.1,63.3,21.9,79.8c13.3,12.3,33.4,15.4,55.2,14.8
		C276.6,597.4,274.5,496.5,278.3,396z"/>
	<path class="st2" d="M791.6,322c-2.6,19.5-14.5,39.7-32.9,54.7c-19.7,16.2-46.3,27.6-83.8,36c-42,9.5-74.6,10.1-102.5,2
		c-38.6-11.2-70.7-41.7-83.8-79.6c-10.2-29.4-8.6-63.1,4.2-92.2c1.3-3,3-6,5.7-9.2c7.1-8,21.5-16.6,57-26.1
		c19.7-5.3,39.8-7.8,59.8-7.8c46.2,0,91.5,13.7,128.2,39.9c39.5,28.1,47.3,55.7,48.4,69.7C792.3,313.5,792.2,317.8,791.6,322z"/>
	<path class="suscolor" d="M284.6,697.7c-21.8,0.6-41.9-2.5-55.2-14.8c-17.9-16.5-21.1-48.1-21.9-79.8c-1.8-67.6,0.3-136.6,2.6-203.8
		c20.2-8.4,44.8-7.1,68.2-3.2C274.5,496.5,276.6,597.4,284.6,697.7z M760.3,495.2c-15.7,57.9-56.6,109.2-111.7,133
		c-72.2,31.3-164.3,11.1-214.2-49.6c-32-38.9-45.6-89.6-54.4-139.2c-15.4-87.7-18-177.7-7.7-266.1C346.5,223,340.8,282,337.3,338.3
		c-9.7,155.5-4.8,312.8,14.7,467.4c2.5,19.6,5.1,36.9,12.9,49.8c11,18.1,36,28.7,58.2,24.6c23.3-4.3,44.1-24.2,49.4-47.4
		c3.1-13.5,1.9-29.1,0.6-45.6c-1.4-18.9-3-40.3,1.8-61.9c2.8-12.4,13.6-21.4,26.3-21.9l0.9,0c0.4,0,0.7,0,1.1,0
		c22.6,0.1,134.9-1.3,189.3-5.8c0,0-27.8,52.9-73.1,59.7c-9.6,28-2.3,62,18.4,79.9c11.4,9.8,28.2,14.8,44.9,13.2
		c15-1.4,28.2-7.9,36.1-17.9c11.2-14.1,15.5-34.8,19.3-56.6C754.3,683.2,761.6,589.1,760.3,495.2z"/>
	<path class="st4" d="M791.6,322c-2.6,19.5-14.5,39.7-32.9,54.7c-19.7,16.2-46.3,27.6-83.8,36c-42,9.5-74.6,10.1-102.5,2
		c-38.6-11.2-70.7-41.7-83.8-79.6c-10.2-29.4-8.6-63.1,4.2-92.2c1.3-3,3-6,5.7-9.2c7.4,11.1,13,40.2,18.1,48.8
		c10.8,17.9,26.2,33.3,44.1,44.2c37.8,23,84.3,28,128.2,22.4C724.2,344.6,758.2,333.9,791.6,322z"/>
	<path class="st5" d="M614.3,273.7c-7.1-2.6-13.4-8.9-13.7-16.5c-0.3-11,11.3-18.3,21.7-21.8c29.4-9.9,62.4-8.8,91.1,3
		c8.2,3.4,17,9,17.8,17.8c0.9,9.8-9.3,17.6-19.2,18.6c-9.8,1-19.5-2.4-29.2-4C660.3,267.1,637.5,282.1,614.3,273.7z"/>
</g>
</svg>
